<svg xmlns="http://www.w3.org/2000/svg"  viewBox="0 0 48 48" width="48px" height="48px" fill-rule="evenodd" clip-rule="evenodd"><path fill="#3ba3f8" d="M12.867,44C10.733,44,9,42.296,9,40.19V7.81C9,5.704,10.733,4,12.867,4h21.267 C36.271,4,38,5.704,38,7.81V40.19c0,2.106-1.729,3.81-3.867,3.81H12.867z"/><path fill="#eceff1" d="M16 28H31V30H16zM16 32H31V34H16zM16 36H26V38H16z"/><path fill="#b9ddfc" fill-rule="evenodd" d="M16 10H31V25H16z" clip-rule="evenodd"/><path fill="#f90" d="M23.503,22.914c-1.676,0-1.75-2.465-1.75-2.465v-2.097h3.5v2.098 C25.253,20.449,25.177,22.914,23.503,22.914z"/><path fill="#ffa800" d="M26.65 15.551A.699.699 0 1 0 26.65 16.949.699.699 0 1 0 26.65 15.551zM20.35 15.551A.699.699 0 1 0 20.35 16.949.699.699 0 1 0 20.35 15.551z"/><path fill="#ffb840" d="M26.65,14.148c0-2.672-6.301-1.738-6.301,0c0,0.371,0,2.082,0,2.453c0,1.738,1.41,3.148,3.152,3.148 c1.738,0,3.148-1.41,3.148-3.148C26.65,16.23,26.65,14.52,26.65,14.148z"/><path fill="#424242" d="M23.503,11c-2.129,0-3.5,1.723-3.5,3.852c0,0.281,0,0.797,0,0.797l0.699,0.601V14.5l4.199-1.398 l1.398,1.398v1.75l0.703-0.609c0,0,0-0.508,0-0.789c0-1.41-0.363-2.805-2.102-3.152L24.549,11H23.503z"/><path fill="#7a4712" d="M24.9 15.898A.352.352 0 1 0 24.9 16.602.352.352 0 1 0 24.9 15.898zM22.101 15.898A.35.352 0 1 0 22.101 16.602.35.352 0 1 0 22.101 15.898z"/><path fill="#c33400" d="M25.253,20.449c0,0-0.617,0.699-1.75,0.699c-1.137,0-1.75-0.699-1.75-0.699S17.9,21.145,17.9,25 H29.1C29.1,21.16,25.253,20.449,25.253,20.449z"/></svg>