<svg xmlns="http://www.w3.org/2000/svg"  viewBox="0 0 64 64" width="64px" height="64px" baseProfile="basic"><path fill="#9c34c2" d="M45,17H19c-6.627,0-12,5.373-12,12v17c0,2.209,1.791,4,4,4h42c2.209,0,4-1.791,4-4V29	C57,22.373,51.627,17,45,17z"/><path fill="#fff" d="M7,29v5c2.762,0,5-2.239,5-5c0-3.86,3.141-7,7-7c2.762,0,5-2.239,5-5h-5	C12.373,17,7,22.373,7,29z" opacity=".3"/><path d="M57,46V35c-2.762,0-5,2.239-5,5v5h-9c-2.762,0-5,2.239-5,5h15C55.209,50,57,48.209,57,46z" opacity=".15"/><ellipse cx="32" cy="61" opacity=".3" rx="19" ry="3"/><path fill="#37d0ee" d="M15.857,42.286C17.57,43.963,19.912,45,22.5,45s4.929-1.037,6.643-2.714H15.857z"/><path fill="#37d0ee" d="M29.143,28.714C27.43,27.037,25.088,26,22.5,26s-4.929,1.037-6.643,2.714H29.143z"/><circle cx="44" cy="41" r="4" fill="orange"/><path fill="#68e5fd" d="M48,32h-8c-1.105,0-2-0.895-2-2v-2c0-1.105,0.895-2,2-2h8c1.105,0,2,0.895,2,2v2	C50,31.105,49.105,32,48,32z"/><rect width="2" height="6" x="43" y="26" fill="#e74152"/><path fill="orange" d="M18,54h-3c-1.105,0-2-0.895-2-2v-2h7v2C20,53.105,19.105,54,18,54z"/><path fill="orange" d="M49,54h-3c-1.105,0-2-0.895-2-2v-2h7v2C51,53.105,50.105,54,49,54z"/><path fill="#37d0ee" d="M13.139,37c0.144,0.905,0.406,1.77,0.787,2.571h17.147c0.381-0.801,0.643-1.666,0.787-2.571H13.139z"/><path fill="#37d0ee" d="M31.86,34c-0.144-0.905-0.406-1.77-0.787-2.571H13.926c-0.381,0.801-0.643,1.666-0.787,2.571H31.86z"/><path fill="orange" d="M22.5,12c-0.828,0-1.5-0.671-1.5-1.5v-8C21,1.671,21.672,1,22.5,1S24,1.671,24,2.5v8	C24,11.329,23.328,12,22.5,12z"/><path fill="orange" d="M12.5,15c-0.384,0-0.768-0.146-1.061-0.439l-4-4c-0.586-0.585-0.586-1.536,0-2.121	c0.586-0.586,1.535-0.586,2.121,0l4,4c0.586,0.585,0.586,1.536,0,2.121C13.268,14.854,12.884,15,12.5,15z"/><path fill="orange" d="M32.5,15c-0.384,0-0.768-0.146-1.061-0.439c-0.586-0.585-0.586-1.536,0-2.121l4-4	c0.586-0.586,1.535-0.586,2.121,0c0.586,0.585,0.586,1.536,0,2.121l-4,4C33.268,14.854,32.884,15,32.5,15z"/><path fill="orange" d="M17.501,13c-0.582,0-1.136-0.341-1.38-0.91l-3-7c-0.326-0.761,0.026-1.643,0.788-1.97	c0.76-0.326,1.644,0.026,1.97,0.788l3,7c0.326,0.761-0.026,1.643-0.788,1.97C17.898,12.961,17.698,13,17.501,13z"/><path fill="orange" d="M27.499,13c-0.197,0-0.397-0.039-0.59-0.122c-0.762-0.327-1.114-1.208-0.788-1.97l3-7	c0.326-0.762,1.21-1.115,1.97-0.788c0.762,0.327,1.114,1.208,0.788,1.97l-3,7C28.635,12.66,28.081,13,27.499,13z"/><path fill="#fff" d="M10.876,28.25c-0.124,0-0.25-0.016-0.376-0.048c-0.802-0.207-1.284-1.025-1.077-1.828	c1.179-4.57,5.002-6.088,5.164-6.15c0.769-0.298,1.641,0.087,1.938,0.861c0.296,0.77-0.086,1.634-0.853,1.935	c-0.132,0.054-2.566,1.086-3.346,4.104C12.153,27.801,11.544,28.25,10.876,28.25z"/></svg>